<svg width="19" height="19" viewBox="0 0 19 19" fill="none" xmlns="http://www.w3.org/2000/svg">
<path d="M18.745 0.708779C18.7211 0.59773 18.6657 0.495931 18.5854 0.415618C18.505 0.335305 18.4032 0.279896 18.2921 0.256051C17.0969 0 16.1618 0 15.2301 0C11.3994 0 9.10175 2.04841 7.3872 4.74993H3.51937C3.18904 4.75021 2.8653 4.84229 2.5843 5.01588C2.30329 5.18946 2.07609 5.43773 1.92806 5.73295L0.0936226 9.3993C0.025877 9.53512 -0.00602705 9.68599 0.000938336 9.8376C0.00790373 9.98921 0.0535075 10.1365 0.133421 10.2656C0.213335 10.3946 0.324908 10.5011 0.457551 10.5749C0.590194 10.6487 0.739507 10.6874 0.891317 10.6873H4.74319L3.90912 11.5212C3.68642 11.7439 3.56131 12.0459 3.56131 12.3608C3.56131 12.6757 3.68642 12.9777 3.90912 13.2004L5.7985 15.0896C5.9088 15.1999 6.03975 15.2874 6.18388 15.3471C6.32801 15.4068 6.4825 15.4375 6.63851 15.4375C6.79452 15.4375 6.949 15.4068 7.09313 15.3471C7.23726 15.2874 7.36821 15.1999 7.47852 15.0896L8.31259 14.2557V18.1091C8.31254 18.2608 8.35127 18.4101 8.42509 18.5426C8.49891 18.6752 8.60538 18.7867 8.7344 18.8666C8.86342 18.9464 9.01072 18.992 9.16231 18.9991C9.31391 19.0061 9.46479 18.9742 9.60063 18.9066L13.2643 17.0738C13.5601 16.9261 13.8088 16.6989 13.9826 16.4176C14.1563 16.1364 14.2482 15.8124 14.248 15.4818V11.6073C16.9425 9.88914 18.9992 7.58468 18.9992 3.77397C19.003 2.83883 19.003 1.90368 18.745 0.708779ZM14.2517 6.23429C13.958 6.23429 13.671 6.14723 13.4268 5.98413C13.1826 5.82103 12.9923 5.5892 12.8799 5.31797C12.7676 5.04674 12.7381 4.74829 12.7954 4.46035C12.8527 4.17241 12.9941 3.90793 13.2018 3.70034C13.4094 3.49275 13.674 3.35137 13.962 3.2941C14.25 3.23683 14.5486 3.26622 14.8199 3.37857C15.0912 3.49092 15.3231 3.68117 15.4862 3.92527C15.6494 4.16937 15.7365 4.45636 15.7365 4.74993C15.7365 5.14361 15.58 5.52116 15.3016 5.79953C15.0231 6.0779 14.6455 6.23429 14.2517 6.23429Z" fill="#E6E6E6"/>
</svg>
