<svg width="20" height="19" viewBox="0 0 20 19" fill="none" xmlns="http://www.w3.org/2000/svg">
<path d="M19.5 9.5C19.5 14.7479 15.2463 19 10 19C4.75366 19 0.5 14.7479 0.5 9.5C0.5 4.2552 4.75366 0 10 0C15.2463 0 19.5 4.2552 19.5 9.5ZM10.2549 3.14113C8.16734 3.14113 6.83589 4.02053 5.79035 5.58347C5.6549 5.78596 5.70022 6.05905 5.89435 6.20626L7.22355 7.2141C7.42293 7.3653 7.70701 7.32933 7.86193 7.13281C8.54623 6.26487 9.01545 5.76156 10.057 5.76156C10.8396 5.76156 11.8075 6.26521 11.8075 7.02406C11.8075 7.59774 11.3339 7.89235 10.5613 8.32556C9.66015 8.83071 8.46774 9.45943 8.46774 11.0323V11.1855C8.46774 11.4393 8.67356 11.6452 8.92742 11.6452H11.0726C11.3264 11.6452 11.5323 11.4393 11.5323 11.1855V11.1344C11.5323 10.0441 14.7188 9.99875 14.7188 7.04839C14.7188 4.82654 12.4141 3.14113 10.2549 3.14113ZM10 12.6411C9.02836 12.6411 8.2379 13.4316 8.2379 14.4032C8.2379 15.3748 9.02836 16.1653 10 16.1653C10.9716 16.1653 11.7621 15.3748 11.7621 14.4032C11.7621 13.4316 10.9716 12.6411 10 12.6411Z" fill="#808080"/>
</svg>
