<svg width="19" height="19" viewBox="0 0 19 19" fill="none" xmlns="http://www.w3.org/2000/svg">
<path d="M9.5 0C4.25366 0 0 4.2552 0 9.5C0 14.7479 4.25366 19 9.5 19C14.7463 19 19 14.7479 19 9.5C19 4.2552 14.7463 0 9.5 0ZM9.5 4.21371C10.3886 4.21371 11.1089 4.93402 11.1089 5.82258C11.1089 6.71114 10.3886 7.43145 9.5 7.43145C8.61144 7.43145 7.89113 6.71114 7.89113 5.82258C7.89113 4.93402 8.61144 4.21371 9.5 4.21371ZM11.6452 13.9435C11.6452 14.1974 11.4393 14.4032 11.1855 14.4032H7.81452C7.56066 14.4032 7.35484 14.1974 7.35484 13.9435V13.0242C7.35484 12.7703 7.56066 12.5645 7.81452 12.5645H8.27419V10.1129H7.81452C7.56066 10.1129 7.35484 9.90708 7.35484 9.65323V8.73387C7.35484 8.48001 7.56066 8.27419 7.81452 8.27419H10.2661C10.52 8.27419 10.7258 8.48001 10.7258 8.73387V12.5645H11.1855C11.4393 12.5645 11.6452 12.7703 11.6452 13.0242V13.9435Z" fill="#E6E6E6"/>
</svg>
