<svg width="55" height="44" viewBox="0 0 55 44" fill="none" xmlns="http://www.w3.org/2000/svg">
<path d="M19.5131 35.1279C17.3698 35.1279 15.6376 33.4111 15.6376 31.3193V12.7961C15.6376 10.6898 17.3845 8.98754 19.5131 8.98754H54.5543V0H12.0556C5.71385 0 0.546494 5.07803 0.546494 11.3102V32.6898C0.546494 38.922 5.71385 44 12.0556 44H54.936V35.1423H19.5131V35.1279Z" fill="url(#paint0_linear_260_27994)"/>
<path d="M19.2343 36.7148C16.1515 36.7148 13.6412 34.2479 13.6412 31.2184V12.2335C13.6412 9.20398 16.1515 6.73709 19.2343 6.73709H52.7488V1.58693H12.0558C6.59479 1.58693 2.16144 5.94365 2.16144 11.3102V31.9397C2.16144 37.3063 6.59479 41.663 12.0558 41.663H53.1599V36.7148H19.2343Z" fill="url(#paint1_linear_260_27994)"/>
<defs>
<linearGradient id="paint0_linear_260_27994" x1="0.552057" y1="21.994" x2="54.9417" y2="21.994" gradientUnits="userSpaceOnUse">
<stop stop-color="#5F747A"/>
<stop offset="1" stop-color="#374C52"/>
</linearGradient>
<linearGradient id="paint1_linear_260_27994" x1="27.6614" y1="1.58693" x2="27.6614" y2="41.6558" gradientUnits="userSpaceOnUse">
<stop stop-color="#CCD8DB"/>
<stop offset="1" stop-color="#556971"/>
</linearGradient>
</defs>
</svg>
