<svg width="20" height="19" viewBox="0 0 20 19" fill="none" xmlns="http://www.w3.org/2000/svg">
<path d="M19.4041 10.6875H10.6802L16.4901 16.5519C16.7122 16.7761 17.0776 16.7943 17.3059 16.5772C18.7287 15.2241 19.7074 13.4002 19.9945 11.3499C20.0438 10.9988 19.7552 10.6875 19.4041 10.6875ZM18.8221 8.28276C18.5191 3.84963 15.0096 0.307126 10.6177 0.00134189C10.2824 -0.0220373 10 0.263337 10 0.60252V8.9062H18.2269C18.5629 8.9062 18.8452 8.6212 18.8221 8.28276ZM8.23535 10.6875V1.88169C8.23535 1.5273 7.92689 1.23598 7.57947 1.28571C3.19823 1.91064 -0.150654 5.77414 0.00522739 10.4043C0.165521 15.1596 4.22176 19.0591 8.93498 18.9993C10.7879 18.9759 12.5 18.3733 13.9078 17.3654C14.1982 17.1576 14.2173 16.726 13.9655 16.4718L8.23535 10.6875Z" fill="#E6E6E6"/>
</svg>
