<svg width="110" height="102" viewBox="0 0 110 102" fill="none" xmlns="http://www.w3.org/2000/svg">
<path d="M83 72.833V32.167C83 29.3511 86.4487 27.941 88.4656 29.9321L109.062 50.265C110.313 51.4993 110.313 53.5006 109.062 54.7349L88.4656 75.0679C86.4487 77.0591 83 75.6488 83 72.833Z" fill="#757575"/>
<path d="M33.0952 76H72.9048C75.6589 76 77.0359 79.3146 75.0864 81.257L55.1893 101.098C53.9825 102.301 52.0175 102.301 50.8107 101.098L30.9136 81.257C28.9641 79.3146 30.3411 76 33.0952 76Z" fill="#757575"/>
<path d="M26 32.0997V71.9004C26 74.6563 22.679 76.0365 20.7368 74.0878L0.902962 54.1874C-0.300987 52.9794 -0.300987 51.0207 0.902962 49.8127L20.7368 29.9123C22.679 27.9634 26 29.3437 26 32.0997Z" fill="#757575"/>
<path d="M72.9003 26H33.0996C30.3437 26 28.9635 22.679 30.9122 20.7368L50.8126 0.902962C52.0206 -0.300987 53.9793 -0.300987 55.1873 0.902962L75.0877 20.7368C77.0366 22.679 75.6563 26 72.9003 26Z" fill="#757575"/>
</svg>
