<svg width="32" height="20" viewBox="0 0 32 20" fill="none" xmlns="http://www.w3.org/2000/svg">
<path d="M18.3615 0H13.0523L0 19.1146H5.48845L5.91595 18.4641L5.52982 18.3625L8.28095 14.2564H23.126L26.4287 19.1146H31.7103L18.3615 0ZM10.1357 11.4783L15.4932 3.476C15.569 3.36759 15.7276 3.36759 15.8034 3.476L20.9816 11.1801L21.2436 11.485H10.1357V11.4783Z" fill="#8B9E9F"/>
<path d="M17.7272 4.38926e-08H13.8246L0.972201 18.8233H5.99869L9.05319 14.2631H23.8982L26.9941 18.8233L27.5595 17.4003L17.7272 4.38926e-08ZM10.908 11.4783L16.2654 3.476C16.3412 3.36759 16.4998 3.36759 16.5757 3.476L22.009 11.485H10.908V11.4783Z" fill="#30454B"/>
</svg>
