<svg width="27" height="20" viewBox="0 0 27 20" fill="none" xmlns="http://www.w3.org/2000/svg">
<path d="M17.0376 10.6652L18.6028 15.1982L20.7403 19.5686L20.9885 19.86H27.001L20.7196 12.5421L19.6578 11.8103L17.0376 10.6652Z" fill="#ECF7FA"/>
<path d="M20.9885 19.86L20.7403 19.5686H26.2701L27.001 19.86H20.9885Z" fill="#34454C"/>
<path d="M19.6578 11.8103H20.7058C23.4638 11.8103 25.7047 9.61491 25.7047 6.8978V5.65104C25.7047 2.94071 23.4707 0.738566 20.7058 0.738566H0.710187V3.14399H17.8099C19.2372 3.14399 20.3955 4.28233 20.3955 5.68492V6.63354C20.3955 8.03614 19.2372 9.17448 17.8099 9.17448H7.34322C6.57097 9.17448 5.80562 8.99153 5.11612 8.64596L0.710187 6.43704V9.18803V19.5686H6.05384V11.8103H14.0383L20.7403 19.5618H26.277L19.6578 11.8103Z" fill="url(#paint0_linear_265_1493)"/>
<defs>
<linearGradient id="paint0_linear_265_1493" x1="13.4899" y1="0.745342" x2="13.4899" y2="19.5652" gradientUnits="userSpaceOnUse">
<stop stop-color="#CCD8DB"/>
<stop offset="1" stop-color="#556971"/>
</linearGradient>
</defs>
</svg>
