<svg width="27" height="133" viewBox="0 0 27 133" fill="none" xmlns="http://www.w3.org/2000/svg">
<path d="M2 79.4699V78.6887C2 78.0415 2.52466 77.5168 3.17188 77.5168H20.75V75.173C20.75 74.1297 22.0146 73.6085 22.7505 74.3444L26.6568 78.2506C27.1144 78.7083 27.1144 79.4503 26.6568 79.9079L22.7505 83.8142C22.0174 84.5472 20.75 84.0332 20.75 82.9855V80.6418H3.17188C2.52466 80.6418 2 80.1171 2 79.4699ZM25.8281 86.8918H8.25V84.548C8.25 83.5073 6.98721 82.9816 6.24946 83.7194L2.34321 87.6256C1.8856 88.0833 1.8856 88.8253 2.34321 89.2829L6.24946 93.1892C6.98325 93.9229 8.25 93.4073 8.25 92.3605V90.0168H25.8281C26.4753 90.0168 27 89.4921 27 88.8449V88.0637C27 87.4165 26.4753 86.8918 25.8281 86.8918Z" fill="black"/>
<path d="M23.875 50.2344V55.7031C23.8754 55.8571 23.8453 56.0097 23.7866 56.152C23.7278 56.2944 23.6415 56.4237 23.5326 56.5326C23.4237 56.6415 23.2944 56.7278 23.152 56.7866C23.0097 56.8453 22.8571 56.8754 22.7031 56.875H17.2344C16.1899 56.875 15.6675 55.6104 16.4043 54.873L18.1719 53.1055L12.9375 47.8711L7.70166 53.1104L9.47071 54.873C10.2075 55.6104 9.68506 56.875 8.64063 56.875H3.17188C3.01788 56.8754 2.86532 56.8453 2.72296 56.7866C2.58061 56.7278 2.45127 56.6415 2.34238 56.5326C2.23348 56.4237 2.14718 56.2944 2.08842 56.152C2.02966 56.0097 1.99962 55.8571 2 55.7031V50.2344C2 49.1895 3.26416 48.667 4.00196 49.4043L5.76905 51.1719L11.0068 45.9375L5.76856 40.6982L4.00196 42.4707C3.26465 43.208 2 42.6856 2 41.6406V36.1719C1.99962 36.0179 2.02966 35.8653 2.08842 35.723C2.14718 35.5806 2.23348 35.4513 2.34238 35.3424C2.45127 35.2335 2.58061 35.1472 2.72296 35.0884C2.86532 35.0297 3.01788 34.9996 3.17188 35H8.64063C9.68506 35 10.2075 36.2647 9.47071 37.002L7.70313 38.7695L12.9375 44.0039L18.1733 38.7647L16.4043 37.002C15.6675 36.2647 16.1899 35 17.2344 35H22.7031C22.8571 34.9996 23.0097 35.0297 23.152 35.0884C23.2944 35.1472 23.4237 35.2335 23.5326 35.3424C23.6415 35.4513 23.7278 35.5806 23.7866 35.723C23.8453 35.8653 23.8754 36.0179 23.875 36.1719V41.6406C23.875 42.6856 22.6108 43.208 21.873 42.4707L20.106 40.7031L14.8682 45.9375L20.1064 51.1768L21.873 49.4092C22.6104 48.667 23.875 49.1895 23.875 50.2344Z" fill="black"/>
<path d="M7.50218 13.75H15.0022C17.0725 13.75 18.7522 12.0703 18.7522 10H20.0022C22.76 10 25.0022 7.75781 25.0022 5C25.0022 2.24219 22.76 0 20.0022 0H4.68968C4.17015 0 3.75218 0.417969 3.75218 0.9375V10C3.75218 12.0703 5.43187 13.75 7.50218 13.75ZM20.0022 2.5C21.3811 2.5 22.5022 3.62109 22.5022 5C22.5022 6.37891 21.3811 7.5 20.0022 7.5H18.7522V2.5H20.0022ZM21.8655 17.5H1.8889C0.029528 17.5 -0.49391 15 0.482653 15H23.2678C24.2444 15 23.7287 17.5 21.8655 17.5Z" fill="black"/>
<path d="M14.5 124.688C17.4502 124.688 19.8438 122.294 19.8438 119.344C19.8438 116.394 17.4502 114 14.5 114C11.5498 114 9.15625 116.394 9.15625 119.344C9.15625 122.294 11.5498 124.688 14.5 124.688ZM19.25 125.875H17.2053C16.3814 126.254 15.4648 126.469 14.5 126.469C13.5352 126.469 12.6223 126.254 11.7947 125.875H9.75C7.12637 125.875 5 128.001 5 130.625V131.219C5 132.202 5.79785 133 6.78125 133H22.2188C23.2021 133 24 132.202 24 131.219V130.625C24 128.001 21.8736 125.875 19.25 125.875Z" fill="#374C52"/>
</svg>
