<svg width="16" height="14" viewBox="0 0 16 14" fill="none" xmlns="http://www.w3.org/2000/svg">
<path d="M0.6875 2.64062H15.3125C15.6232 2.64062 15.875 2.3888 15.875 2.07812V0.671875C15.875 0.361199 15.6232 0.109375 15.3125 0.109375H0.6875C0.376824 0.109375 0.125 0.361199 0.125 0.671875V2.07812C0.125 2.3888 0.376824 2.64062 0.6875 2.64062ZM0.6875 8.26562H15.3125C15.6232 8.26562 15.875 8.0138 15.875 7.70312V6.29688C15.875 5.9862 15.6232 5.73438 15.3125 5.73438H0.6875C0.376824 5.73438 0.125 5.9862 0.125 6.29688V7.70312C0.125 8.0138 0.376824 8.26562 0.6875 8.26562ZM0.6875 13.8906H15.3125C15.6232 13.8906 15.875 13.6388 15.875 13.3281V11.9219C15.875 11.6112 15.6232 11.3594 15.3125 11.3594H0.6875C0.376824 11.3594 0.125 11.6112 0.125 11.9219V13.3281C0.125 13.6388 0.376824 13.8906 0.6875 13.8906Z" fill="white"/>
</svg>
