<svg width="27" height="21" viewBox="0 0 27 21" fill="none" xmlns="http://www.w3.org/2000/svg">
<path d="M9.39051 16.4992C8.38383 16.4992 7.57022 15.6928 7.57022 14.7103V6.01016C7.57022 5.02089 8.39073 4.22134 9.39051 4.22134H25.849V1.13265e-07H5.88782C2.90916 1.13265e-07 0.482117 2.38509 0.482117 5.31225V15.354C0.482117 18.2812 2.90916 20.6663 5.88782 20.6663H26.0282V16.5059H9.39051V16.4992Z" fill="url(#paint0_linear_265_1482)"/>
<path d="M9.25949 17.2445C7.81153 17.2445 6.63248 16.0858 6.63248 14.6629V5.74591C6.63248 4.32298 7.81153 3.16431 9.25949 3.16431H25.0009V0.745342H5.88781C3.32286 0.745342 1.24056 2.79164 1.24056 5.31225V15.0017C1.24056 17.5223 3.32286 19.5686 5.88781 19.5686H25.1939V17.2445H9.25949Z" fill="url(#paint1_linear_265_1482)"/>
<defs>
<linearGradient id="paint0_linear_265_1482" x1="0.48473" y1="10.3303" x2="26.0309" y2="10.3303" gradientUnits="userSpaceOnUse">
<stop stop-color="#5F747A"/>
<stop offset="1" stop-color="#374C52"/>
</linearGradient>
<linearGradient id="paint1_linear_265_1482" x1="13.2176" y1="0.745342" x2="13.2176" y2="19.5652" gradientUnits="userSpaceOnUse">
<stop stop-color="#CCD8DB"/>
<stop offset="1" stop-color="#556971"/>
</linearGradient>
</defs>
</svg>
