<svg width="68" height="41" viewBox="0 0 68 41" fill="none" xmlns="http://www.w3.org/2000/svg">
<path d="M39.0929 0H27.7893L0 40.6964H11.6853L12.5955 39.3115L11.7734 39.0951L17.6307 30.3528H49.2368L56.2686 40.6964H67.5135L39.0929 0ZM21.5796 24.438L32.986 7.40066C33.1475 7.16984 33.4852 7.16984 33.6466 7.40066L44.6713 23.8033L45.2292 24.4525H21.5796V24.438Z" fill="#8B9E9F"/>
<path d="M37.7423 1.31503e-05H29.4334L2.06983 40.0761H12.7716L19.2748 30.3672H50.8809L57.4723 40.0761L58.676 37.0466L37.7423 1.31503e-05ZM23.2238 24.438L34.6301 7.40067C34.7916 7.16985 35.1293 7.16985 35.2907 7.40067L46.8586 24.4525H23.2238V24.438Z" fill="#30454B"/>
</svg>
