<svg width="14" height="15" viewBox="0 0 14 15" fill="none" xmlns="http://www.w3.org/2000/svg">
<path d="M7 15C8.10375 15 8.99906 14.1606 8.99906 13.125H5.00094C5.00094 14.1606 5.89625 15 7 15ZM13.7309 10.614C13.1272 10.0058 11.9975 9.09082 11.9975 6.09375C11.9975 3.81738 10.295 1.99512 7.99937 1.54805V0.9375C7.99937 0.419824 7.55187 0 7 0C6.44813 0 6.00063 0.419824 6.00063 0.9375V1.54805C3.70501 1.99512 2.00252 3.81738 2.00252 6.09375C2.00252 9.09082 0.872831 10.0058 0.269083 10.614C0.0815838 10.8029 -0.00154089 11.0288 2.16058e-05 11.25C0.0034591 11.7305 0.405645 12.1875 1.00314 12.1875H12.9969C13.5944 12.1875 13.9969 11.7305 14 11.25C14.0015 11.0288 13.9184 10.8026 13.7309 10.614Z" fill="black" fill-opacity="0.5"/>
</svg>
