<svg width="30" height="21" viewBox="0 0 30 21" fill="none" xmlns="http://www.w3.org/2000/svg">
<path d="M23.946 1.13265e-07H6.03272C3.05406 1.13265e-07 0.627007 2.38509 0.627007 5.31225V15.354C0.627007 18.2812 3.05406 20.6663 6.03272 20.6663H23.946C26.9247 20.6663 29.3518 18.2812 29.3518 15.354V5.31225C29.3449 2.38509 26.9247 1.13265e-07 23.946 1.13265e-07ZM22.0775 14.7103C22.0775 15.6996 21.257 16.4992 20.2572 16.4992H9.5354C8.52872 16.4992 7.71511 15.6928 7.71511 14.7103V6.01016C7.71511 5.02089 8.53562 4.22134 9.5354 4.22134H20.2572C21.2639 4.22134 22.0775 5.02767 22.0775 6.01016V14.7103Z" fill="url(#paint0_linear_260_26659)"/>
<path d="M23.946 1.13265e-07H6.03272C3.05406 1.13265e-07 0.627007 2.38509 0.627007 5.31225V15.354C0.627007 18.2812 3.05406 20.6663 6.03272 20.6663H23.946C26.9247 20.6663 29.3518 18.2812 29.3518 15.354V5.31225C29.3449 2.38509 26.9247 1.13265e-07 23.946 1.13265e-07ZM22.0775 14.7103C22.0775 15.6996 21.257 16.4992 20.2572 16.4992H9.5354C8.52872 16.4992 7.71511 15.6928 7.71511 14.7103V6.01016C7.71511 5.02089 8.53562 4.22134 9.5354 4.22134H20.2572C21.2639 4.22134 22.0775 5.02767 22.0775 6.01016V14.7103Z" fill="url(#paint1_linear_260_26659)"/>
<path d="M23.7599 0.745342H6.03272C3.46777 0.745342 1.38547 2.79164 1.38547 5.31225V15.0017C1.38547 17.5223 3.46777 19.5686 6.03272 19.5686H23.7599C26.3248 19.5686 28.4071 17.5223 28.4071 15.0017V5.31225C28.4071 2.79164 26.3248 0.745342 23.7599 0.745342ZM23.0152 14.6629C23.0152 16.0858 21.8362 17.2445 20.3882 17.2445H9.4044C7.95644 17.2445 6.77739 16.0858 6.77739 14.6629V5.74591C6.77739 4.32298 7.95644 3.16431 9.4044 3.16431H20.3882C21.8362 3.16431 23.0152 4.32298 23.0152 5.74591V14.6629Z" fill="url(#paint2_linear_260_26659)"/>
<defs>
<linearGradient id="paint0_linear_260_26659" x1="0.62962" y1="10.3303" x2="29.3479" y2="10.3303" gradientUnits="userSpaceOnUse">
<stop stop-color="#5F747A"/>
<stop offset="1" stop-color="#374C52"/>
</linearGradient>
<linearGradient id="paint1_linear_260_26659" x1="0.62962" y1="10.3303" x2="29.3479" y2="10.3303" gradientUnits="userSpaceOnUse">
<stop stop-color="#5F747A"/>
<stop offset="1" stop-color="#374C52"/>
</linearGradient>
<linearGradient id="paint2_linear_260_26659" x1="14.8966" y1="0.745342" x2="14.8966" y2="19.5652" gradientUnits="userSpaceOnUse">
<stop stop-color="#CCD8DB"/>
<stop offset="1" stop-color="#556971"/>
</linearGradient>
</defs>
</svg>
