<svg width="62" height="44" viewBox="0 0 62 44" fill="none" xmlns="http://www.w3.org/2000/svg">
<path d="M50.3723 0H12.2336C5.89182 0 0.724457 5.07803 0.724457 11.3102V32.6898C0.724457 38.922 5.89182 44 12.2336 44H50.3723C56.7141 44 61.8815 38.922 61.8815 32.6898V11.3102C61.8668 5.07803 56.7141 0 50.3723 0ZM46.394 31.3193C46.394 33.4256 44.6471 35.1279 42.5185 35.1279H19.6911C17.5478 35.1279 15.8155 33.4111 15.8155 31.3193V12.7961C15.8155 10.6898 17.5625 8.98754 19.6911 8.98754H42.5185C44.6618 8.98754 46.394 10.7043 46.394 12.7961V31.3193Z" fill="url(#paint0_linear_260_26508)"/>
<path d="M50.3723 0H12.2336C5.89182 0 0.724457 5.07803 0.724457 11.3102V32.6898C0.724457 38.922 5.89182 44 12.2336 44H50.3723C56.7141 44 61.8815 38.922 61.8815 32.6898V11.3102C61.8668 5.07803 56.7141 0 50.3723 0ZM46.394 31.3193C46.394 33.4256 44.6471 35.1279 42.5185 35.1279H19.6911C17.5478 35.1279 15.8155 33.4111 15.8155 31.3193V12.7961C15.8155 10.6898 17.5625 8.98754 19.6911 8.98754H42.5185C44.6618 8.98754 46.394 10.7043 46.394 12.7961V31.3193Z" fill="url(#paint1_linear_260_26508)"/>
<path d="M49.9761 1.58693H12.2337C6.77275 1.58693 2.33939 5.94365 2.33939 11.3102V31.9397C2.33939 37.3063 6.77275 41.663 12.2337 41.663H49.9761C55.4371 41.663 59.8704 37.3063 59.8704 31.9397V11.3102C59.8704 5.94365 55.4371 1.58693 49.9761 1.58693ZM48.3907 31.2184C48.3907 34.2479 45.8804 36.7148 42.7976 36.7148H19.4123C16.3295 36.7148 13.8192 34.2479 13.8192 31.2184V12.2335C13.8192 9.20398 16.3295 6.73709 19.4123 6.73709H42.7976C45.8804 6.73709 48.3907 9.20398 48.3907 12.2335V31.2184Z" fill="url(#paint2_linear_260_26508)"/>
<defs>
<linearGradient id="paint0_linear_260_26508" x1="0.730021" y1="21.994" x2="61.8733" y2="21.994" gradientUnits="userSpaceOnUse">
<stop stop-color="#5F747A"/>
<stop offset="1" stop-color="#374C52"/>
</linearGradient>
<linearGradient id="paint1_linear_260_26508" x1="0.730021" y1="21.994" x2="61.8733" y2="21.994" gradientUnits="userSpaceOnUse">
<stop stop-color="#5F747A"/>
<stop offset="1" stop-color="#374C52"/>
</linearGradient>
<linearGradient id="paint2_linear_260_26508" x1="31.1056" y1="1.58693" x2="31.1056" y2="41.6558" gradientUnits="userSpaceOnUse">
<stop stop-color="#CCD8DB"/>
<stop offset="1" stop-color="#556971"/>
</linearGradient>
</defs>
</svg>
