<svg width="57" height="42" viewBox="0 0 57 42" fill="none" xmlns="http://www.w3.org/2000/svg">
<path d="M35.2742 21.7067L38.6066 31.3579L43.1574 40.6628L43.6859 41.2831H56.4869L43.1134 25.7028L40.8526 24.1448L35.2742 21.7067Z" fill="#ECF7FA"/>
<path d="M43.6859 41.2834L43.1574 40.6631H54.9308L56.4869 41.2834H43.6859Z" fill="#34454C"/>
<path d="M40.8529 24.1448H43.0842C48.9562 24.1448 53.7273 19.4707 53.7273 13.6858V11.0314C53.7273 5.2609 48.9709 0.572373 43.0842 0.572373H0.512132V5.69368H36.9186C39.9574 5.69368 42.4236 8.11729 42.4236 11.1035V13.1232C42.4236 16.1094 39.9574 18.533 36.9186 18.533H14.6343C12.9902 18.533 11.3607 18.1435 9.89267 17.4078L0.512132 12.7048V18.5619V40.6629H11.8892V24.1448H28.8886L43.1576 40.6484H54.9457L40.8529 24.1448Z" fill="url(#paint0_linear_265_1464)"/>
<defs>
<linearGradient id="paint0_linear_265_1464" x1="27.7211" y1="0.586799" x2="27.7211" y2="40.6556" gradientUnits="userSpaceOnUse">
<stop stop-color="#CCD8DB"/>
<stop offset="1" stop-color="#556971"/>
</linearGradient>
</defs>
</svg>
