<svg width="19" height="19" viewBox="0 0 19 19" fill="none" xmlns="http://www.w3.org/2000/svg">
<path d="M15.0161 2.03948C17.4294 3.73591 19 6.51051 19 9.65078C19 14.8079 14.7556 18.9887 9.51916 19C4.29033 19.0113 0.00766828 14.8155 6.99155e-06 9.66586C-0.00382365 6.52559 1.56674 3.74345 3.97622 2.04325C4.4244 1.73036 5.0488 1.8623 5.31694 2.33353L5.92218 3.39285C6.14819 3.78869 6.04093 4.29007 5.66936 4.5615C4.07964 5.72261 3.06452 7.56229 3.06452 9.64701C3.06069 13.1266 5.91835 15.9841 9.5 15.9841C13.0089 15.9841 15.9585 13.1869 15.9355 9.60931C15.924 7.65654 14.9893 5.77162 13.3268 4.55773C12.9552 4.2863 12.8518 3.78492 13.0778 3.39285L13.6831 2.33353C13.9512 1.86607 14.5718 1.72659 15.0161 2.03948ZM11.0323 9.95237V0.904761C11.0323 0.403373 10.6224 0 10.1129 0H8.8871C8.37762 0 7.96775 0.403373 7.96775 0.904761V9.95237C7.96775 10.4538 8.37762 10.8571 8.8871 10.8571H10.1129C10.6224 10.8571 11.0323 10.4538 11.0323 9.95237Z" fill="#E6E6E6"/>
</svg>
